<?xml version="1.0" encoding="UTF-8"?>
<svg xmlns="http://www.w3.org/2000/svg" viewBox="0 0 120 50">
  <path d="M30.5,16.5v3h-21v-3H30.5z M32,8.5c2.2,0,4,1.8,4,4v24c0,2.2-1.8,4-4,4H8c-2.2,0-4-1.8-4-4v-24c0-2.2,1.8-4,4-4H32z M32,11.5H8c-0.5,0-1,0.5-1,1v24c0,0.5,0.5,1,1,1h24c0.5,0,1-0.5,1-1v-24C33,12,32.5,11.5,32,11.5z" fill="#000"/>
  <path d="M50,38.5V11.5h10c2.5,0,4.5,0.7,6,2.1c1.5,1.4,2.3,3.4,2.3,5.9s-0.8,4.5-2.3,5.9c-1.5,1.4-3.5,2.1-6,2.1h-6v11H50z M54,23.5h6c1.2,0,2.2-0.4,2.9-1.1c0.7-0.7,1.1-1.7,1.1-2.9s-0.4-2.2-1.1-2.9c-0.7-0.7-1.7-1.1-2.9-1.1h-6V23.5z" fill="#000"/>
  <path d="M82.1,38.9c-2.5,0-4.8-0.6-6.8-1.7c-2-1.1-3.6-2.7-4.7-4.7c-1.1-2-1.7-4.2-1.7-6.6s0.6-4.6,1.7-6.6c1.1-2,2.7-3.5,4.7-4.7c2-1.1,4.2-1.7,6.8-1.7c2.5,0,4.8,0.6,6.8,1.7c2,1.1,3.6,2.7,4.7,4.7c1.1,2,1.7,4.2,1.7,6.6s-0.6,4.6-1.7,6.6c-1.1,2-2.7,3.5-4.7,4.7C86.9,38.3,84.6,38.9,82.1,38.9z M82.1,34.9c1.5,0,2.9-0.4,4.1-1.1c1.2-0.7,2.2-1.7,2.9-3c0.7-1.3,1.1-2.7,1.1-4.4c0-1.6-0.4-3.1-1.1-4.4c-0.7-1.3-1.7-2.3-2.9-3c-1.2-0.7-2.6-1.1-4.1-1.1c-1.5,0-2.9,0.4-4.1,1.1c-1.2,0.7-2.2,1.7-2.9,3c-0.7,1.3-1.1,2.7-1.1,4.4c0,1.6,0.4,3.1,1.1,4.4c0.7,1.3,1.7,2.3,2.9,3C79.2,34.5,80.6,34.9,82.1,34.9z" fill="#000"/>
</svg> 